<svg xmlns="http://www.w3.org/2000/svg" xmlns:xlink="http://www.w3.org/1999/xlink" width="500" zoomAndPan="magnify" viewBox="0 0 375 374.999991" height="500" preserveAspectRatio="xMidYMid meet" version="1.0"><defs><g/><clipPath id="edccd9064f"><rect x="0" width="247" y="0" height="39"/></clipPath></defs><g transform="matrix(1, 0, 0, 1, 72, 149)"><g clip-path="url(#edccd9064f)"><g fill="#ffffff" fill-opacity="1"><g transform="translate(0.122749, 28.029714)"><g><path d="M 6.84375 -3.109375 L 16.171875 -3.109375 C 17.023438 -3.109375 17.753906 -3.414062 18.363281 -4.027344 C 18.976562 -4.640625 19.28125 -5.371094 19.28125 -6.21875 L 19.28125 -21.769531 L 22.394531 -21.769531 L 22.394531 -6.21875 C 22.394531 -5.121094 22.117188 -4.101562 21.570312 -3.15625 C 21.019531 -2.214844 20.273438 -1.453125 19.328125 -0.871094 C 18.386719 -0.289062 17.332031 0 16.171875 0 L 6.84375 0 C 5.722656 0 4.695312 -0.273438 3.761719 -0.824219 C 2.832031 -1.375 2.082031 -2.121094 1.523438 -3.0625 C 0.964844 -4.007812 0.664062 -5.058594 0.621094 -6.21875 L 3.730469 -6.21875 C 3.730469 -5.371094 4.039062 -4.640625 4.648438 -4.027344 C 5.261719 -3.414062 5.992188 -3.109375 6.84375 -3.109375 Z M 6.84375 -3.109375 "/></g></g></g><g fill="#ffffff" fill-opacity="1"><g transform="translate(24.060653, 28.029714)"><g><path d="M 20.214844 -6.21875 L 20.214844 -21.769531 L 23.324219 -21.769531 L 23.324219 -6.21875 C 23.324219 -5.121094 23.050781 -4.101562 22.5 -3.15625 C 21.953125 -2.214844 21.207031 -1.453125 20.261719 -0.871094 C 19.320312 -0.289062 18.265625 0 17.105469 0 L 7.773438 0 C 6.675781 0 5.648438 -0.273438 4.695312 -0.824219 C 3.742188 -1.375 2.980469 -2.121094 2.410156 -3.0625 C 1.839844 -4.007812 1.554688 -5.058594 1.554688 -6.21875 L 1.554688 -21.769531 L 4.664062 -21.769531 L 4.664062 -6.21875 C 4.664062 -5.371094 4.972656 -4.640625 5.582031 -4.027344 C 6.195312 -3.414062 6.925781 -3.109375 7.773438 -3.109375 L 17.105469 -3.109375 C 17.957031 -3.109375 18.6875 -3.414062 19.296875 -4.027344 C 19.910156 -4.640625 20.214844 -5.371094 20.214844 -6.21875 Z M 20.214844 -6.21875 "/></g></g></g><g fill="#ffffff" fill-opacity="1"><g transform="translate(48.931209, 28.029714)"><g><path d="M 4.664062 -21.769531 L 4.664062 -3.109375 L 23.324219 -3.109375 L 23.324219 0 L 1.554688 0 L 1.554688 -21.769531 Z M 4.664062 -21.769531 "/></g></g></g><g fill="#ffffff" fill-opacity="1"><g transform="translate(72.247363, 28.029714)"><g><path d="M 1.554688 -21.769531 L 4.664062 -21.769531 L 4.664062 0 L 1.554688 0 Z M 1.554688 -21.769531 "/></g></g></g><g fill="#ffffff" fill-opacity="1"><g transform="translate(78.465011, 28.029714)"><g><path d="M 17.105469 -18.660156 L 7.773438 -18.660156 C 6.925781 -18.660156 6.195312 -18.355469 5.582031 -17.742188 C 4.972656 -17.132812 4.664062 -16.402344 4.664062 -15.550781 L 4.664062 -9.332031 L 20.214844 -9.332031 L 20.214844 -15.550781 C 20.214844 -16.402344 19.910156 -17.132812 19.296875 -17.742188 C 18.6875 -18.355469 17.957031 -18.660156 17.105469 -18.660156 Z M 23.324219 -15.550781 L 23.324219 0 L 20.214844 0 L 20.214844 -6.21875 L 4.664062 -6.21875 L 4.664062 0 L 1.554688 0 L 1.554688 -15.550781 C 1.554688 -16.648438 1.828125 -17.671875 2.378906 -18.613281 C 2.929688 -19.558594 3.675781 -20.320312 4.617188 -20.898438 C 5.5625 -21.480469 6.613281 -21.769531 7.773438 -21.769531 L 17.105469 -21.769531 C 18.226562 -21.769531 19.246094 -21.492188 20.167969 -20.929688 C 21.089844 -20.371094 21.84375 -19.625 22.421875 -18.691406 C 23.003906 -17.757812 23.304688 -16.710938 23.324219 -15.550781 Z M 23.324219 -15.550781 "/></g></g></g><g fill="#ffffff" fill-opacity="1"><g transform="translate(103.335567, 28.029714)"><g><path d="M 23.324219 -21.769531 L 23.324219 0 L 20.214844 0 L 4.664062 -16.730469 L 4.664062 0 L 1.554688 0 L 1.554688 -21.769531 L 4.664062 -21.769531 L 20.214844 -5.289062 L 20.214844 -21.769531 Z M 23.324219 -21.769531 "/></g></g></g><g fill="#ffffff" fill-opacity="1"><g transform="translate(128.206123, 28.029714)"><g/></g></g><g fill="#ffffff" fill-opacity="1"><g transform="translate(140.641401, 28.029714)"><g><path d="M 23.015625 -6.21875 C 23.015625 -5.121094 22.738281 -4.101562 22.191406 -3.15625 C 21.640625 -2.214844 20.894531 -1.453125 19.953125 -0.871094 C 19.007812 -0.289062 17.957031 0 16.792969 0 L 7.464844 0 C 6.34375 0 5.316406 -0.273438 4.386719 -0.824219 C 3.453125 -1.375 2.707031 -2.121094 2.144531 -3.0625 C 1.585938 -4.007812 1.285156 -5.058594 1.242188 -6.21875 L 4.355469 -6.21875 C 4.355469 -5.371094 4.660156 -4.640625 5.273438 -4.027344 C 5.882812 -3.414062 6.613281 -3.109375 7.464844 -3.109375 L 16.792969 -3.109375 C 17.644531 -3.109375 18.375 -3.414062 18.988281 -4.027344 C 19.597656 -4.640625 19.90625 -5.371094 19.90625 -6.21875 C 19.90625 -7.070312 19.597656 -7.800781 18.988281 -8.414062 C 18.375 -9.023438 17.644531 -9.332031 16.792969 -9.332031 L 7.464844 -9.332031 C 6.367188 -9.332031 5.339844 -9.605469 4.386719 -10.15625 C 3.429688 -10.703125 2.667969 -11.449219 2.097656 -12.394531 C 1.527344 -13.335938 1.242188 -14.390625 1.242188 -15.550781 C 1.242188 -16.648438 1.519531 -17.671875 2.066406 -18.613281 C 2.617188 -19.558594 3.363281 -20.320312 4.308594 -20.898438 C 5.25 -21.480469 6.304688 -21.769531 7.464844 -21.769531 L 16.792969 -21.769531 C 17.914062 -21.769531 18.933594 -21.492188 19.859375 -20.929688 C 20.78125 -20.371094 21.53125 -19.625 22.113281 -18.691406 C 22.695312 -17.757812 22.992188 -16.710938 23.015625 -15.550781 L 19.90625 -15.550781 C 19.90625 -16.402344 19.597656 -17.132812 18.988281 -17.742188 C 18.375 -18.355469 17.644531 -18.660156 16.792969 -18.660156 L 7.464844 -18.660156 C 6.613281 -18.660156 5.882812 -18.355469 5.273438 -17.742188 C 4.660156 -17.132812 4.355469 -16.402344 4.355469 -15.550781 C 4.355469 -14.699219 4.660156 -13.96875 5.273438 -13.359375 C 5.882812 -12.746094 6.613281 -12.441406 7.464844 -12.441406 L 16.792969 -12.441406 C 17.894531 -12.441406 18.914062 -12.160156 19.859375 -11.601562 C 20.800781 -11.039062 21.5625 -10.292969 22.144531 -9.363281 C 22.722656 -8.429688 23.015625 -7.382812 23.015625 -6.21875 Z M 23.015625 -6.21875 "/></g></g></g><g fill="#ffffff" fill-opacity="1"><g transform="translate(164.89019, 28.029714)"><g><path d="M 13.996094 -2.738281 L 4.664062 -16.203125 L 4.664062 0 L 1.554688 0 L 1.554688 -21.769531 L 4.664062 -21.769531 L 13.996094 -8.304688 L 23.324219 -21.769531 L 26.4375 -21.769531 L 26.4375 0 L 23.324219 0 L 23.324219 -16.203125 Z M 13.996094 -2.738281 "/></g></g></g><g fill="#ffffff" fill-opacity="1"><g transform="translate(192.86957, 28.029714)"><g><path d="M 1.554688 -21.769531 L 4.664062 -21.769531 L 4.664062 0 L 1.554688 0 Z M 1.554688 -21.769531 "/></g></g></g><g fill="#ffffff" fill-opacity="1"><g transform="translate(199.087218, 28.029714)"><g><path d="M 21.769531 -18.660156 L 12.441406 -18.660156 L 12.441406 0 L 9.332031 0 L 9.332031 -18.660156 L 0 -18.660156 L 0 -21.769531 L 21.769531 -21.769531 Z M 21.769531 -18.660156 "/></g></g></g><g fill="#ffffff" fill-opacity="1"><g transform="translate(220.848951, 28.029714)"><g><path d="M 4.664062 -21.769531 L 4.664062 -12.441406 L 20.214844 -12.441406 L 20.214844 -21.769531 L 23.324219 -21.769531 L 23.324219 0 L 20.214844 0 L 20.214844 -9.332031 L 4.664062 -9.332031 L 4.664062 0 L 1.554688 0 L 1.554688 -21.769531 Z M 4.664062 -21.769531 "/></g></g></g></g></g><g fill="#ffffff" fill-opacity="1"><g transform="translate(82.740673, 204.241847)"><g><path d="M 7.28125 -1.96875 C 7.28125 -1.621094 7.195312 -1.296875 7.019531 -1 C 6.847656 -0.699219 6.609375 -0.460938 6.3125 -0.277344 C 6.015625 -0.09375 5.679688 0 5.3125 0 L 2.363281 0 C 2.007812 0 1.683594 -0.0859375 1.386719 -0.261719 C 1.09375 -0.433594 0.855469 -0.671875 0.679688 -0.96875 C 0.5 -1.269531 0.40625 -1.601562 0.394531 -1.96875 L 1.378906 -1.96875 C 1.378906 -1.699219 1.472656 -1.46875 1.667969 -1.273438 C 1.863281 -1.082031 2.09375 -0.984375 2.363281 -0.984375 L 5.3125 -0.984375 C 5.582031 -0.984375 5.8125 -1.082031 6.007812 -1.273438 C 6.199219 -1.46875 6.296875 -1.699219 6.296875 -1.96875 C 6.296875 -2.238281 6.199219 -2.46875 6.007812 -2.660156 C 5.8125 -2.855469 5.582031 -2.953125 5.3125 -2.953125 L 2.363281 -2.953125 C 2.015625 -2.953125 1.6875 -3.039062 1.386719 -3.210938 C 1.085938 -3.386719 0.84375 -3.621094 0.664062 -3.921875 C 0.484375 -4.21875 0.394531 -4.550781 0.394531 -4.921875 C 0.394531 -5.269531 0.480469 -5.589844 0.65625 -5.890625 C 0.828125 -6.1875 1.0625 -6.429688 1.363281 -6.613281 C 1.660156 -6.796875 1.996094 -6.886719 2.363281 -6.886719 L 5.3125 -6.886719 C 5.667969 -6.886719 5.992188 -6.800781 6.28125 -6.621094 C 6.574219 -6.445312 6.8125 -6.210938 6.996094 -5.914062 C 7.179688 -5.617188 7.273438 -5.289062 7.28125 -4.921875 L 6.296875 -4.921875 C 6.296875 -5.1875 6.199219 -5.421875 6.007812 -5.613281 C 5.8125 -5.808594 5.582031 -5.902344 5.3125 -5.902344 L 2.363281 -5.902344 C 2.09375 -5.902344 1.863281 -5.808594 1.667969 -5.613281 C 1.472656 -5.421875 1.378906 -5.1875 1.378906 -4.921875 C 1.378906 -4.652344 1.472656 -4.417969 1.667969 -4.226562 C 1.863281 -4.03125 2.09375 -3.9375 2.363281 -3.9375 L 5.3125 -3.9375 C 5.660156 -3.9375 5.984375 -3.847656 6.28125 -3.671875 C 6.582031 -3.492188 6.824219 -3.257812 7.007812 -2.960938 C 7.191406 -2.667969 7.28125 -2.335938 7.28125 -1.96875 Z M 7.28125 -1.96875 "/></g></g></g><g fill="#ffffff" fill-opacity="1"><g transform="translate(90.409702, 204.241847)"><g><path d="M 6.296875 -1.96875 L 6.296875 -4.921875 C 6.296875 -5.1875 6.199219 -5.421875 6.007812 -5.613281 C 5.8125 -5.808594 5.582031 -5.902344 5.3125 -5.902344 L 2.363281 -5.902344 C 2.09375 -5.902344 1.863281 -5.808594 1.667969 -5.613281 C 1.472656 -5.421875 1.378906 -5.1875 1.378906 -4.921875 L 1.378906 -1.96875 C 1.378906 -1.699219 1.472656 -1.46875 1.667969 -1.273438 C 1.863281 -1.082031 2.09375 -0.984375 2.363281 -0.984375 L 5.3125 -0.984375 C 5.582031 -0.984375 5.8125 -1.082031 6.007812 -1.273438 C 6.199219 -1.46875 6.296875 -1.699219 6.296875 -1.96875 Z M 7.28125 -4.921875 L 7.28125 -1.96875 C 7.28125 -1.605469 7.191406 -1.277344 7.015625 -0.980469 C 6.839844 -0.679688 6.601562 -0.441406 6.300781 -0.265625 C 6.003906 -0.0898438 5.675781 0 5.3125 0 L 2.363281 0 C 2 0 1.671875 -0.0898438 1.371094 -0.265625 C 1.074219 -0.441406 0.835938 -0.679688 0.660156 -0.980469 C 0.480469 -1.277344 0.394531 -1.605469 0.394531 -1.96875 L 0.394531 -4.921875 C 0.394531 -5.28125 0.480469 -5.609375 0.660156 -5.910156 C 0.835938 -6.207031 1.074219 -6.445312 1.371094 -6.621094 C 1.671875 -6.800781 2 -6.886719 2.363281 -6.886719 L 5.3125 -6.886719 C 5.660156 -6.886719 5.984375 -6.796875 6.28125 -6.617188 C 6.582031 -6.4375 6.824219 -6.199219 7.007812 -5.902344 C 7.191406 -5.609375 7.28125 -5.28125 7.28125 -4.921875 Z M 7.28125 -4.921875 "/></g></g></g><g fill="#ffffff" fill-opacity="1"><g transform="translate(98.07873, 204.241847)"><g><path d="M 1.476562 -5.902344 L 1.476562 -3.9375 L 6.394531 -3.9375 L 6.394531 -2.953125 L 1.476562 -2.953125 L 1.476562 0 L 0.492188 0 L 0.492188 -6.886719 L 7.378906 -6.886719 L 7.378906 -5.902344 Z M 1.476562 -5.902344 "/></g></g></g><g fill="#ffffff" fill-opacity="1"><g transform="translate(105.649431, 204.241847)"><g><path d="M 6.886719 -5.902344 L 3.9375 -5.902344 L 3.9375 0 L 2.953125 0 L 2.953125 -5.902344 L 0 -5.902344 L 0 -6.886719 L 6.886719 -6.886719 Z M 6.886719 -5.902344 "/></g></g></g><g fill="#ffffff" fill-opacity="1"><g transform="translate(112.531885, 204.241847)"><g><path d="M 6.394531 -0.984375 L 7.378906 -0.984375 C 7.648438 -0.984375 7.878906 -1.082031 8.074219 -1.273438 C 8.265625 -1.46875 8.363281 -1.699219 8.363281 -1.96875 L 8.363281 -6.886719 L 9.347656 -6.886719 L 9.347656 -1.96875 C 9.347656 -1.621094 9.261719 -1.296875 9.085938 -1 C 8.914062 -0.699219 8.675781 -0.460938 8.378906 -0.277344 C 8.082031 -0.09375 7.746094 0 7.378906 0 L 6.394531 0 C 5.804688 0 5.3125 -0.222656 4.921875 -0.667969 C 4.527344 -0.222656 4.035156 0 3.445312 0 L 2.460938 0 C 2.113281 0 1.789062 -0.0859375 1.484375 -0.261719 C 1.183594 -0.433594 0.941406 -0.671875 0.761719 -0.96875 C 0.582031 -1.269531 0.492188 -1.601562 0.492188 -1.96875 L 0.492188 -6.886719 L 1.476562 -6.886719 L 1.476562 -1.96875 C 1.476562 -1.699219 1.574219 -1.46875 1.765625 -1.273438 C 1.960938 -1.082031 2.191406 -0.984375 2.460938 -0.984375 L 3.445312 -0.984375 C 3.714844 -0.984375 3.945312 -1.082031 4.136719 -1.273438 C 4.332031 -1.46875 4.429688 -1.699219 4.429688 -1.96875 L 4.429688 -6.886719 L 5.410156 -6.886719 L 5.410156 -1.96875 C 5.410156 -1.699219 5.507812 -1.46875 5.703125 -1.273438 C 5.894531 -1.082031 6.128906 -0.984375 6.394531 -0.984375 Z M 6.394531 -0.984375 "/></g></g></g><g fill="#ffffff" fill-opacity="1"><g transform="translate(122.363973, 204.241847)"><g><path d="M 5.410156 -5.902344 L 2.460938 -5.902344 C 2.191406 -5.902344 1.960938 -5.808594 1.765625 -5.613281 C 1.574219 -5.421875 1.476562 -5.1875 1.476562 -4.921875 L 1.476562 -2.953125 L 6.394531 -2.953125 L 6.394531 -4.921875 C 6.394531 -5.1875 6.300781 -5.421875 6.105469 -5.613281 C 5.914062 -5.808594 5.679688 -5.902344 5.410156 -5.902344 Z M 7.378906 -4.921875 L 7.378906 0 L 6.394531 0 L 6.394531 -1.96875 L 1.476562 -1.96875 L 1.476562 0 L 0.492188 0 L 0.492188 -4.921875 C 0.492188 -5.269531 0.578125 -5.589844 0.753906 -5.890625 C 0.925781 -6.1875 1.164062 -6.429688 1.460938 -6.613281 C 1.757812 -6.796875 2.09375 -6.886719 2.460938 -6.886719 L 5.410156 -6.886719 C 5.765625 -6.886719 6.089844 -6.800781 6.382812 -6.621094 C 6.671875 -6.445312 6.910156 -6.210938 7.09375 -5.914062 C 7.277344 -5.617188 7.375 -5.289062 7.378906 -4.921875 Z M 7.378906 -4.921875 "/></g></g></g><g fill="#ffffff" fill-opacity="1"><g transform="translate(130.229645, 204.241847)"><g><path d="M 6.394531 -3.9375 L 6.394531 -4.921875 C 6.394531 -5.1875 6.300781 -5.421875 6.105469 -5.613281 C 5.914062 -5.808594 5.679688 -5.902344 5.410156 -5.902344 L 1.476562 -5.902344 L 1.476562 -2.953125 L 5.410156 -2.953125 C 5.679688 -2.953125 5.914062 -3.046875 6.105469 -3.242188 C 6.300781 -3.4375 6.394531 -3.667969 6.394531 -3.9375 Z M 7.378906 0 L 6.679688 0 L 4.714844 -1.96875 L 1.476562 -1.96875 L 1.476562 0 L 0.492188 0 L 0.492188 -6.886719 L 5.410156 -6.886719 C 5.757812 -6.886719 6.082031 -6.800781 6.382812 -6.621094 C 6.679688 -6.445312 6.921875 -6.210938 7.105469 -5.914062 C 7.289062 -5.617188 7.378906 -5.289062 7.378906 -4.921875 L 7.378906 -3.9375 C 7.378906 -3.515625 7.253906 -3.132812 7 -2.789062 C 6.75 -2.445312 6.417969 -2.203125 6.011719 -2.066406 L 7.378906 -0.699219 Z M 7.378906 0 "/></g></g></g><g fill="#ffffff" fill-opacity="1"><g transform="translate(137.99699, 204.241847)"><g><path d="M 1.476562 -5.902344 L 1.476562 -3.9375 L 6.394531 -3.9375 L 6.394531 -2.953125 L 1.476562 -2.953125 L 1.476562 -0.984375 L 7.378906 -0.984375 L 7.378906 0 L 0.492188 0 L 0.492188 -6.886719 L 7.378906 -6.886719 L 7.378906 -5.902344 Z M 1.476562 -5.902344 "/></g></g></g><g fill="#ffffff" fill-opacity="1"><g transform="translate(145.666019, 204.241847)"><g/></g></g><g fill="#ffffff" fill-opacity="1"><g transform="translate(149.598849, 204.241847)"><g><path d="M 1.476562 -5.902344 L 1.476562 -3.9375 L 6.394531 -3.9375 L 6.394531 -2.953125 L 1.476562 -2.953125 L 1.476562 -0.984375 L 7.378906 -0.984375 L 7.378906 0 L 0.492188 0 L 0.492188 -6.886719 L 7.378906 -6.886719 L 7.378906 -5.902344 Z M 1.476562 -5.902344 "/></g></g></g><g fill="#ffffff" fill-opacity="1"><g transform="translate(157.267878, 204.241847)"><g><path d="M 7.378906 -6.886719 L 7.378906 0 L 6.394531 0 L 1.476562 -5.292969 L 1.476562 0 L 0.492188 0 L 0.492188 -6.886719 L 1.476562 -6.886719 L 6.394531 -1.671875 L 6.394531 -6.886719 Z M 7.378906 -6.886719 "/></g></g></g><g fill="#ffffff" fill-opacity="1"><g transform="translate(165.133551, 204.241847)"><g><path d="M 3.34375 -2.953125 L 3.34375 -3.9375 L 7.28125 -3.9375 L 7.28125 -1.96875 C 7.28125 -1.621094 7.195312 -1.296875 7.019531 -1 C 6.847656 -0.699219 6.609375 -0.460938 6.3125 -0.277344 C 6.015625 -0.09375 5.679688 0 5.3125 0 L 2.363281 0 C 2.015625 0 1.6875 -0.0859375 1.386719 -0.261719 C 1.085938 -0.433594 0.84375 -0.671875 0.664062 -0.96875 C 0.484375 -1.269531 0.394531 -1.601562 0.394531 -1.96875 L 0.394531 -4.921875 C 0.394531 -5.269531 0.480469 -5.589844 0.65625 -5.890625 C 0.828125 -6.1875 1.0625 -6.429688 1.363281 -6.613281 C 1.660156 -6.796875 1.996094 -6.886719 2.363281 -6.886719 L 5.3125 -6.886719 C 5.667969 -6.886719 5.992188 -6.800781 6.28125 -6.621094 C 6.574219 -6.445312 6.8125 -6.210938 6.996094 -5.914062 C 7.179688 -5.617188 7.273438 -5.289062 7.28125 -4.921875 L 6.296875 -4.921875 C 6.296875 -5.1875 6.199219 -5.421875 6.007812 -5.613281 C 5.8125 -5.808594 5.582031 -5.902344 5.3125 -5.902344 L 2.363281 -5.902344 C 2.09375 -5.902344 1.863281 -5.808594 1.667969 -5.613281 C 1.472656 -5.421875 1.378906 -5.1875 1.378906 -4.921875 L 1.378906 -1.96875 C 1.378906 -1.699219 1.472656 -1.46875 1.667969 -1.273438 C 1.863281 -1.082031 2.09375 -0.984375 2.363281 -0.984375 L 5.3125 -0.984375 C 5.582031 -0.984375 5.8125 -1.082031 6.007812 -1.273438 C 6.199219 -1.46875 6.296875 -1.699219 6.296875 -1.96875 L 6.296875 -2.953125 Z M 3.34375 -2.953125 "/></g></g></g><g fill="#ffffff" fill-opacity="1"><g transform="translate(172.802579, 204.241847)"><g><path d="M 0.492188 -6.886719 L 1.476562 -6.886719 L 1.476562 0 L 0.492188 0 Z M 0.492188 -6.886719 "/></g></g></g><g fill="#ffffff" fill-opacity="1"><g transform="translate(174.768995, 204.241847)"><g><path d="M 7.378906 -6.886719 L 7.378906 0 L 6.394531 0 L 1.476562 -5.292969 L 1.476562 0 L 0.492188 0 L 0.492188 -6.886719 L 1.476562 -6.886719 L 6.394531 -1.671875 L 6.394531 -6.886719 Z M 7.378906 -6.886719 "/></g></g></g><g fill="#ffffff" fill-opacity="1"><g transform="translate(182.634667, 204.241847)"><g><path d="M 1.476562 -5.902344 L 1.476562 -3.9375 L 6.394531 -3.9375 L 6.394531 -2.953125 L 1.476562 -2.953125 L 1.476562 -0.984375 L 7.378906 -0.984375 L 7.378906 0 L 0.492188 0 L 0.492188 -6.886719 L 7.378906 -6.886719 L 7.378906 -5.902344 Z M 1.476562 -5.902344 "/></g></g></g><g fill="#ffffff" fill-opacity="1"><g transform="translate(190.303696, 204.241847)"><g><path d="M 1.476562 -5.902344 L 1.476562 -3.9375 L 6.394531 -3.9375 L 6.394531 -2.953125 L 1.476562 -2.953125 L 1.476562 -0.984375 L 7.378906 -0.984375 L 7.378906 0 L 0.492188 0 L 0.492188 -6.886719 L 7.378906 -6.886719 L 7.378906 -5.902344 Z M 1.476562 -5.902344 "/></g></g></g><g fill="#ffffff" fill-opacity="1"><g transform="translate(197.972725, 204.241847)"><g><path d="M 6.394531 -3.9375 L 6.394531 -4.921875 C 6.394531 -5.1875 6.300781 -5.421875 6.105469 -5.613281 C 5.914062 -5.808594 5.679688 -5.902344 5.410156 -5.902344 L 1.476562 -5.902344 L 1.476562 -2.953125 L 5.410156 -2.953125 C 5.679688 -2.953125 5.914062 -3.046875 6.105469 -3.242188 C 6.300781 -3.4375 6.394531 -3.667969 6.394531 -3.9375 Z M 7.378906 0 L 6.679688 0 L 4.714844 -1.96875 L 1.476562 -1.96875 L 1.476562 0 L 0.492188 0 L 0.492188 -6.886719 L 5.410156 -6.886719 C 5.757812 -6.886719 6.082031 -6.800781 6.382812 -6.621094 C 6.679688 -6.445312 6.921875 -6.210938 7.105469 -5.914062 C 7.289062 -5.617188 7.378906 -5.289062 7.378906 -4.921875 L 7.378906 -3.9375 C 7.378906 -3.515625 7.253906 -3.132812 7 -2.789062 C 6.75 -2.445312 6.417969 -2.203125 6.011719 -2.066406 L 7.378906 -0.699219 Z M 7.378906 0 "/></g></g></g><g fill="#ffffff" fill-opacity="1"><g transform="translate(205.74007, 204.241847)"><g><path d="M 0.492188 -0.984375 L 1.476562 -0.984375 L 1.476562 0.984375 L 0.492188 0.984375 Z M 0.492188 -0.984375 "/></g></g></g><g fill="#ffffff" fill-opacity="1"><g transform="translate(207.706485, 204.241847)"><g/></g></g><g fill="#ffffff" fill-opacity="1"><g transform="translate(211.639316, 204.241847)"><g><path d="M 5.410156 -5.902344 L 2.460938 -5.902344 C 2.191406 -5.902344 1.960938 -5.808594 1.765625 -5.613281 C 1.574219 -5.421875 1.476562 -5.1875 1.476562 -4.921875 L 1.476562 -2.953125 L 6.394531 -2.953125 L 6.394531 -4.921875 C 6.394531 -5.1875 6.300781 -5.421875 6.105469 -5.613281 C 5.914062 -5.808594 5.679688 -5.902344 5.410156 -5.902344 Z M 7.378906 -4.921875 L 7.378906 0 L 6.394531 0 L 6.394531 -1.96875 L 1.476562 -1.96875 L 1.476562 0 L 0.492188 0 L 0.492188 -4.921875 C 0.492188 -5.269531 0.578125 -5.589844 0.753906 -5.890625 C 0.925781 -6.1875 1.164062 -6.429688 1.460938 -6.613281 C 1.757812 -6.796875 2.09375 -6.886719 2.460938 -6.886719 L 5.410156 -6.886719 C 5.765625 -6.886719 6.089844 -6.800781 6.382812 -6.621094 C 6.671875 -6.445312 6.910156 -6.210938 7.09375 -5.914062 C 7.277344 -5.617188 7.375 -5.289062 7.378906 -4.921875 Z M 7.378906 -4.921875 "/></g></g></g><g fill="#ffffff" fill-opacity="1"><g transform="translate(219.504988, 204.241847)"><g><path d="M 6.394531 -3.9375 L 6.394531 -4.921875 C 6.394531 -5.1875 6.300781 -5.421875 6.105469 -5.613281 C 5.914062 -5.808594 5.679688 -5.902344 5.410156 -5.902344 L 1.476562 -5.902344 L 1.476562 -2.953125 L 5.410156 -2.953125 C 5.679688 -2.953125 5.914062 -3.046875 6.105469 -3.242188 C 6.300781 -3.4375 6.394531 -3.667969 6.394531 -3.9375 Z M 7.378906 -4.921875 L 7.378906 -3.9375 C 7.378906 -3.589844 7.292969 -3.265625 7.121094 -2.964844 C 6.945312 -2.667969 6.710938 -2.425781 6.410156 -2.242188 C 6.113281 -2.058594 5.78125 -1.96875 5.410156 -1.96875 L 1.476562 -1.96875 L 1.476562 0 L 0.492188 0 L 0.492188 -6.886719 L 5.410156 -6.886719 C 5.765625 -6.886719 6.089844 -6.800781 6.382812 -6.621094 C 6.671875 -6.445312 6.910156 -6.210938 7.09375 -5.914062 C 7.277344 -5.617188 7.375 -5.289062 7.378906 -4.921875 Z M 7.378906 -4.921875 "/></g></g></g><g fill="#ffffff" fill-opacity="1"><g transform="translate(227.174017, 204.241847)"><g><path d="M 6.394531 -3.9375 L 6.394531 -4.921875 C 6.394531 -5.1875 6.300781 -5.421875 6.105469 -5.613281 C 5.914062 -5.808594 5.679688 -5.902344 5.410156 -5.902344 L 1.476562 -5.902344 L 1.476562 -2.953125 L 5.410156 -2.953125 C 5.679688 -2.953125 5.914062 -3.046875 6.105469 -3.242188 C 6.300781 -3.4375 6.394531 -3.667969 6.394531 -3.9375 Z M 7.378906 -4.921875 L 7.378906 -3.9375 C 7.378906 -3.589844 7.292969 -3.265625 7.121094 -2.964844 C 6.945312 -2.667969 6.710938 -2.425781 6.410156 -2.242188 C 6.113281 -2.058594 5.78125 -1.96875 5.410156 -1.96875 L 1.476562 -1.96875 L 1.476562 0 L 0.492188 0 L 0.492188 -6.886719 L 5.410156 -6.886719 C 5.765625 -6.886719 6.089844 -6.800781 6.382812 -6.621094 C 6.671875 -6.445312 6.910156 -6.210938 7.09375 -5.914062 C 7.277344 -5.617188 7.375 -5.289062 7.378906 -4.921875 Z M 7.378906 -4.921875 "/></g></g></g><g fill="#ffffff" fill-opacity="1"><g transform="translate(234.843046, 204.241847)"><g/></g></g><g fill="#ffffff" fill-opacity="1"><g transform="translate(238.775876, 204.241847)"><g><path d="M 6.394531 -1.96875 L 6.394531 -4.921875 C 6.394531 -5.1875 6.300781 -5.421875 6.105469 -5.613281 C 5.914062 -5.808594 5.679688 -5.902344 5.410156 -5.902344 L 1.476562 -5.902344 L 1.476562 -0.984375 L 5.410156 -0.984375 C 5.679688 -0.984375 5.914062 -1.082031 6.105469 -1.273438 C 6.300781 -1.46875 6.394531 -1.699219 6.394531 -1.96875 Z M 7.378906 -4.921875 L 7.378906 -1.96875 C 7.378906 -1.621094 7.292969 -1.296875 7.121094 -1 C 6.945312 -0.699219 6.710938 -0.460938 6.410156 -0.277344 C 6.113281 -0.09375 5.78125 0 5.410156 0 L 0.492188 0 L 0.492188 -6.886719 L 5.410156 -6.886719 C 5.765625 -6.886719 6.089844 -6.800781 6.382812 -6.621094 C 6.671875 -6.445312 6.910156 -6.210938 7.09375 -5.914062 C 7.277344 -5.617188 7.375 -5.289062 7.378906 -4.921875 Z M 7.378906 -4.921875 "/></g></g></g><g fill="#ffffff" fill-opacity="1"><g transform="translate(246.543221, 204.241847)"><g><path d="M 1.476562 -5.902344 L 1.476562 -3.9375 L 6.394531 -3.9375 L 6.394531 -2.953125 L 1.476562 -2.953125 L 1.476562 -0.984375 L 7.378906 -0.984375 L 7.378906 0 L 0.492188 0 L 0.492188 -6.886719 L 7.378906 -6.886719 L 7.378906 -5.902344 Z M 1.476562 -5.902344 "/></g></g></g><g fill="#ffffff" fill-opacity="1"><g transform="translate(254.21225, 204.241847)"><g><path d="M 2.707031 0 L 0.195312 -4.921875 L 0.195312 -6.886719 L 1.179688 -6.886719 L 1.179688 -5.15625 L 3.304688 -0.984375 L 3.976562 -0.984375 L 6.101562 -5.15625 L 6.101562 -6.886719 L 7.085938 -6.886719 L 7.085938 -4.921875 L 4.574219 0 Z M 2.707031 0 "/></g></g></g><g fill="#ffffff" fill-opacity="1"><g transform="translate(261.487991, 204.241847)"><g><path d="M 1.476562 -5.902344 L 1.476562 -3.9375 L 6.394531 -3.9375 L 6.394531 -2.953125 L 1.476562 -2.953125 L 1.476562 -0.984375 L 7.378906 -0.984375 L 7.378906 0 L 0.492188 0 L 0.492188 -6.886719 L 7.378906 -6.886719 L 7.378906 -5.902344 Z M 1.476562 -5.902344 "/></g></g></g><g fill="#ffffff" fill-opacity="1"><g transform="translate(269.15702, 204.241847)"><g><path d="M 1.476562 -6.886719 L 1.476562 -0.984375 L 7.378906 -0.984375 L 7.378906 0 L 0.492188 0 L 0.492188 -6.886719 Z M 1.476562 -6.886719 "/></g></g></g><g fill="#ffffff" fill-opacity="1"><g transform="translate(276.334273, 204.241847)"><g><path d="M 6.296875 -1.96875 L 6.296875 -4.921875 C 6.296875 -5.1875 6.199219 -5.421875 6.007812 -5.613281 C 5.8125 -5.808594 5.582031 -5.902344 5.3125 -5.902344 L 2.363281 -5.902344 C 2.09375 -5.902344 1.863281 -5.808594 1.667969 -5.613281 C 1.472656 -5.421875 1.378906 -5.1875 1.378906 -4.921875 L 1.378906 -1.96875 C 1.378906 -1.699219 1.472656 -1.46875 1.667969 -1.273438 C 1.863281 -1.082031 2.09375 -0.984375 2.363281 -0.984375 L 5.3125 -0.984375 C 5.582031 -0.984375 5.8125 -1.082031 6.007812 -1.273438 C 6.199219 -1.46875 6.296875 -1.699219 6.296875 -1.96875 Z M 7.28125 -4.921875 L 7.28125 -1.96875 C 7.28125 -1.605469 7.191406 -1.277344 7.015625 -0.980469 C 6.839844 -0.679688 6.601562 -0.441406 6.300781 -0.265625 C 6.003906 -0.0898438 5.675781 0 5.3125 0 L 2.363281 0 C 2 0 1.671875 -0.0898438 1.371094 -0.265625 C 1.074219 -0.441406 0.835938 -0.679688 0.660156 -0.980469 C 0.480469 -1.277344 0.394531 -1.605469 0.394531 -1.96875 L 0.394531 -4.921875 C 0.394531 -5.28125 0.480469 -5.609375 0.660156 -5.910156 C 0.835938 -6.207031 1.074219 -6.445312 1.371094 -6.621094 C 1.671875 -6.800781 2 -6.886719 2.363281 -6.886719 L 5.3125 -6.886719 C 5.660156 -6.886719 5.984375 -6.796875 6.28125 -6.617188 C 6.582031 -6.4375 6.824219 -6.199219 7.007812 -5.902344 C 7.191406 -5.609375 7.28125 -5.28125 7.28125 -4.921875 Z M 7.28125 -4.921875 "/></g></g></g><g fill="#ffffff" fill-opacity="1"><g transform="translate(284.003302, 204.241847)"><g><path d="M 6.394531 -3.9375 L 6.394531 -4.921875 C 6.394531 -5.1875 6.300781 -5.421875 6.105469 -5.613281 C 5.914062 -5.808594 5.679688 -5.902344 5.410156 -5.902344 L 1.476562 -5.902344 L 1.476562 -2.953125 L 5.410156 -2.953125 C 5.679688 -2.953125 5.914062 -3.046875 6.105469 -3.242188 C 6.300781 -3.4375 6.394531 -3.667969 6.394531 -3.9375 Z M 7.378906 -4.921875 L 7.378906 -3.9375 C 7.378906 -3.589844 7.292969 -3.265625 7.121094 -2.964844 C 6.945312 -2.667969 6.710938 -2.425781 6.410156 -2.242188 C 6.113281 -2.058594 5.78125 -1.96875 5.410156 -1.96875 L 1.476562 -1.96875 L 1.476562 0 L 0.492188 0 L 0.492188 -6.886719 L 5.410156 -6.886719 C 5.765625 -6.886719 6.089844 -6.800781 6.382812 -6.621094 C 6.671875 -6.445312 6.910156 -6.210938 7.09375 -5.914062 C 7.277344 -5.617188 7.375 -5.289062 7.378906 -4.921875 Z M 7.378906 -4.921875 "/></g></g></g><g fill="#ffffff" fill-opacity="1"><g transform="translate(291.67233, 204.241847)"><g><path d="M 1.476562 -5.902344 L 1.476562 -3.9375 L 6.394531 -3.9375 L 6.394531 -2.953125 L 1.476562 -2.953125 L 1.476562 -0.984375 L 7.378906 -0.984375 L 7.378906 0 L 0.492188 0 L 0.492188 -6.886719 L 7.378906 -6.886719 L 7.378906 -5.902344 Z M 1.476562 -5.902344 "/></g></g></g><g fill="#ffffff" fill-opacity="1"><g transform="translate(299.341359, 204.241847)"><g><path d="M 6.394531 -3.9375 L 6.394531 -4.921875 C 6.394531 -5.1875 6.300781 -5.421875 6.105469 -5.613281 C 5.914062 -5.808594 5.679688 -5.902344 5.410156 -5.902344 L 1.476562 -5.902344 L 1.476562 -2.953125 L 5.410156 -2.953125 C 5.679688 -2.953125 5.914062 -3.046875 6.105469 -3.242188 C 6.300781 -3.4375 6.394531 -3.667969 6.394531 -3.9375 Z M 7.378906 0 L 6.679688 0 L 4.714844 -1.96875 L 1.476562 -1.96875 L 1.476562 0 L 0.492188 0 L 0.492188 -6.886719 L 5.410156 -6.886719 C 5.757812 -6.886719 6.082031 -6.800781 6.382812 -6.621094 C 6.679688 -6.445312 6.921875 -6.210938 7.105469 -5.914062 C 7.289062 -5.617188 7.378906 -5.289062 7.378906 -4.921875 L 7.378906 -3.9375 C 7.378906 -3.515625 7.253906 -3.132812 7 -2.789062 C 6.75 -2.445312 6.417969 -2.203125 6.011719 -2.066406 L 7.378906 -0.699219 Z M 7.378906 0 "/></g></g></g><path stroke-linecap="butt" transform="matrix(0.75, 0, 0, 0.75, 64.910026, 187.608693)" fill="none" stroke-linejoin="miter" d="M 1.500174 1.000909 L 343.48978 1.000909 " stroke="#ffffff" stroke-width="2" stroke-opacity="1" stroke-miterlimit="4"/><path stroke-linecap="round" transform="matrix(0.75, 0, 0, 0.75, 64.910026, 187.608693)" fill="none" stroke-linejoin="round" d="M 1.000174 -1.999091 L 1.000174 4.000909 " stroke="#ffffff" stroke-width="2" stroke-opacity="1" stroke-miterlimit="4"/><path stroke-linecap="round" transform="matrix(0.75, 0, 0, 0.75, 64.910026, 187.608693)" fill="none" stroke-linejoin="round" d="M 343.98978 -1.999091 L 343.98978 4.000909 " stroke="#ffffff" stroke-width="2" stroke-opacity="1" stroke-miterlimit="4"/></svg>