<svg width="261" height="36" viewBox="0 0 261 36" fill="none" xmlns="http://www.w3.org/2000/svg">
<g filter="url(#filter0_d_1_4)">
<path d="M31.2083 0V5.45833H9.4375V10.8958H25.7708C26.7708 10.8958 27.6771 11.1406 28.5 11.625C29.3333 12.1146 29.9896 12.7708 30.4792 13.6042C30.9635 14.4271 31.2083 15.3333 31.2083 16.3333V21.7708C31.2083 22.7708 30.9635 23.6875 30.4792 24.5208C29.9896 25.3438 29.3333 25.9948 28.5 26.4792C27.6771 26.9688 26.7708 27.2083 25.7708 27.2083H4V21.7708H25.7708V16.3333H9.4375C8.44792 16.3333 7.54167 16.0937 6.70833 15.6042C5.875 15.1198 5.21354 14.4583 4.72917 13.625C4.23958 12.7917 4 11.8854 4 10.8958V5.45833C4 4.45833 4.23958 3.55208 4.72917 2.72917C5.21354 1.89583 5.875 1.23958 6.70833 0.75C7.54167 0.25 8.44792 0 9.4375 0H31.2083Z" fill="white"/>
<path d="M63.4604 0V5.45833H58.0229L49.8562 13.6042L58.0229 21.7708H63.4604V27.2083H56.9396C56.1583 27.2083 55.5021 26.9375 54.9604 26.3958L44.8979 16.3333H41.6896V27.2083H36.2521V0H41.6896V10.8958H44.8979L54.9604 0.833333C55.5021 0.281251 56.1583 0 56.9396 0H63.4604Z" fill="white"/>
<path d="M95.7125 0V5.45833H73.9417V10.8958H95.7125V16.3333H73.9417V21.7708H95.7125V27.2083H73.9417C72.9521 27.2083 72.0459 26.9688 71.2125 26.4792C70.3792 25.9948 69.7178 25.3438 69.2334 24.5208C68.7438 23.6875 68.5042 22.7708 68.5042 21.7708V5.45833C68.5042 4.45833 68.7438 3.55208 69.2334 2.72917C69.7178 1.89583 70.3792 1.23958 71.2125 0.75C72.0459 0.25 72.9521 0 73.9417 0H95.7125Z" fill="white"/>
<path d="M127.965 27.2083H106.194C105.204 27.2083 104.298 26.9688 103.465 26.4792C102.631 25.9948 101.97 25.3438 101.486 24.5208C100.996 23.6875 100.756 22.7708 100.756 21.7708V0H106.194V21.7708H127.965V27.2083Z" fill="white"/>
<path d="M160.217 0V5.45833H138.446V10.8958H160.217V16.3333H138.446V21.7708H160.217V27.2083H138.446C137.456 27.2083 136.55 26.9688 135.717 26.4792C134.883 25.9948 134.222 25.3438 133.738 24.5208C133.248 23.6875 133.008 22.7708 133.008 21.7708V5.45833C133.008 4.45833 133.248 3.55208 133.738 2.72917C134.222 1.89583 134.883 1.23958 135.717 0.75C136.55 0.25 137.456 0 138.446 0H160.217Z" fill="white"/>
<path d="M192.469 0V5.45833H181.594V27.2083H176.156V5.45833H165.26V0H192.469Z" fill="white"/>
<path d="M224.721 27.2083H197.513V21.7708H208.408V5.45833H197.513V0H224.721V5.45833H213.846V21.7708H224.721V27.2083Z" fill="white"/>
<path d="M235.202 27.2083H229.765V2.72917C229.765 1.97917 230.025 1.34375 230.556 0.8125C231.098 0.270833 231.744 0 232.494 0C233.244 0 233.89 0.281251 234.431 0.833333L251.536 17.9167V0H256.973V24.4792C256.973 25.2292 256.702 25.875 256.161 26.4167C255.629 26.9479 254.994 27.2083 254.244 27.2083C253.494 27.2083 252.848 26.9375 252.306 26.3958L235.202 9.29167V27.2083Z" fill="white"/>
</g>
<defs>
<filter id="filter0_d_1_4" x="0" y="0" width="260.973" height="35.2083" filterUnits="userSpaceOnUse" color-interpolation-filters="sRGB">
<feFlood flood-opacity="0" result="BackgroundImageFix"/>
<feColorMatrix in="SourceAlpha" type="matrix" values="0 0 0 0 0 0 0 0 0 0 0 0 0 0 0 0 0 0 127 0" result="hardAlpha"/>
<feOffset dy="4"/>
<feGaussianBlur stdDeviation="2"/>
<feComposite in2="hardAlpha" operator="out"/>
<feColorMatrix type="matrix" values="0 0 0 0 0 0 0 0 0 0 0 0 0 0 0 0 0 0 0.25 0"/>
<feBlend mode="normal" in2="BackgroundImageFix" result="effect1_dropShadow_1_4"/>
<feBlend mode="normal" in="SourceGraphic" in2="effect1_dropShadow_1_4" result="shape"/>
</filter>
</defs>
</svg>
